<?xml version="1.0" encoding="UTF-8"?><svg id="Layer_1" xmlns="http://www.w3.org/2000/svg" viewBox="0 0 200.1885 137.4749"><path id="Calendar" d="M120.4549,137.4749H14.0572c-7.5644,0-13.6965-6.1322-13.6965-13.6966l-.3606-38.7677c0-7.5644,6.1322-13.6965,13.6965-13.6965h39.5223c7.5644,0,13.6965-7.8022,13.6965-15.3666V13.6965c0-7.5644,6.1322-13.6965,13.6966-13.6965h105.88c7.5644,0,13.6965,6.1322,13.6965,13.6966v41.6934c0,7.5644-6.1322,13.6965-13.6966,13.6965h-39.118c-7.58,0-13.7186,6.1565-13.6965,13.7364l.4739,40.9156c.0221,7.5799-6.1165,13.7364-13.6965,13.7364Z" fill="#9ebc80" stroke-width="0"/></svg>