<?xml version="1.0" encoding="UTF-8"?><svg id="Layer_1" xmlns="http://www.w3.org/2000/svg" viewBox="0 0 536.6423 69.6383"><path id="logotype_R_11" d="M69.3112.181l41.3158.146c1.2675.0044,2.2926,1.0331,2.2926,2.3006v6.4476c0,1.2839,1.0247,2.7767,2.3084,2.7578l6.8383.0137c1.2837-.0189,2.3346,1.0165,2.3346,2.3003l.037,6.7172c0,1.2706-1.03,2.3006-2.3006,2.3006h-6.8848c-1.2706,0-2.3376,1.2479-2.3376,2.5185v6.5976c0,1.2706-1.03,2.3006-2.3006,2.3006h-6.6853c-1.2706,0-2.3006,1.03-2.3006,2.3006v7.4018c0,1.2706-1.03,2.3006-2.3006,2.3006h-6.8198c-1.2706,0-2.3006-1.03-2.3006-2.3006v-18.6006c0-1.2706,1.03-2.3006,2.3006-2.3006h18.1073c1.2702,0,2.3001-1.0294,2.3006-2.2996l.0027-6.8073c.0005-1.271-1.0296-2.9426-2.3006-2.9426h-41.312c-1.2702,0-2.3001-1.0295-2.3006-2.2997l-.0028-6.5511c-.0005-1.2741,1.0345-2.3059,2.3086-2.3015Z" fill="#eaefd7" stroke-width="0"/><rect id="logotype_R_1" x="67.0026" y="36.4082" width="11.0234" height="33.0101" rx="2.1483" ry="2.1483" fill="#eaefd7" stroke-width="0"/><path id="logotype_match" d="M103.8625,46.5967h6.6971c1.2696,0,2.2988,1.0292,2.2988,2.2988v6.8372c0,1.2696,1.0292,2.2988,2.2988,2.2988h6.9136c1.2696,0,2.2988,1.0292,2.2988,2.2988v6.7892c0,1.2696-1.0292,2.2988-2.2988,2.2988h-6.8271c-1.2611,0-2.2867-1.0159-2.2987-2.277l-.065-6.8329c-.012-1.261-1.0376-2.277-2.2987-2.277h-6.7188c-1.2696,0-2.2988-1.0292-2.2988-2.2988v-6.8372c0-1.2696,1.0292-2.2988,2.2988-2.2988Z" fill="#eaefd7" stroke-width="0"/><path d="M86.413,34.9252h-17.2913c-1.1704,0-2.1191-.9488-2.1191-2.1192V14.7967c0-1.1704.9488-2.1191,2.1192-2.1191h6.5708c1.1704,0,2.1191.9488,2.1191,2.1192v7.0535c0,1.1704.9488,2.1191,2.1191,2.1192h6.4822c1.1704,0,2.1191.9488,2.1191,2.1192v6.7176c0,1.1704-.9488,2.1191-2.1192,2.1191Z" fill="#eaefd7" stroke-width="0"/><path d="M386.6108,46.1769h-18.0134c-1.2807,0-2.3189-1.0382-2.3189-2.3189l-.0611-6.5635c0-1.2807,1.0382-2.3189,2.3189-2.3189h6.6912c1.2807,0,2.3189-1.3209,2.3189-2.6016v-7.1532c0-1.2807,1.0382-2.3189,2.3189-2.3189h17.9258c1.2807,0,2.3189,1.0382,2.3189,2.3189v7.0588c0,1.2807-1.0382,2.3189-2.3189,2.3189h-6.6228c-1.2833,0-2.3226,1.0423-2.3189,2.3256l.0802,6.9271c.0037,1.2833-1.0355,2.3256-2.3189,2.3256Z" fill="#eaefd7" stroke-width="0"/><path id="logotype_match-2" d="M390.9935,46.4997h6.7787c1.2851,0,2.3268,1.0418,2.3268,2.3268v6.9205c0,1.2851,1.0418,2.3268,2.3268,2.3268h6.9978c1.2851,0,2.3268,1.0418,2.3268,2.3268v6.8719c0,1.2851-1.0418,2.3268-2.3268,2.3268h-6.9102c-1.2764,0-2.3146-1.0283-2.3267-2.3047l-.0657-6.9161c-.0121-1.2764-1.0503-2.3047-2.3267-2.3047h-6.8007c-1.2851,0-2.3268-1.0418-2.3268-2.3268v-6.9205c0-1.2851,1.0418-2.3268,2.3268-2.3268Z" fill="#eaefd7" stroke-width="0"/><path d="M402.668,22.9021h6.5242c1.4128,0,2.5581-1.1453,2.5581-2.5581v-6.2906c0-1.4128-1.1453-2.5581-2.5581-2.5581h-6.5242c-1.4128,0-2.5581-1.1453-2.5581-2.5581V2.5581c0-1.4128-1.1453-2.5581-2.5581-2.5581h-41.2814c-1.4128,0-2.5581,1.1453-2.5581,2.5581v64.4831c0,1.4128,1.1453,2.5581,2.5581,2.5581h6.5455c1.4128,0,2.5581-1.1453,2.5581-2.5581V14.1102c0-1.4128,1.1453-2.5581,2.5581-2.5581h29.6197c1.4128,0,2.5581,1.1453,2.5581,2.5581v6.2337c0,1.4128,1.1453,2.5581,2.5581,2.5581Z" fill="#eaefd7" stroke-width="0"/><path id="T" d="M22.2385,66.4046V15.9825c0-1.7215-1.3955-3.117-3.117-3.117H3.117c-1.7215,0-3.117-1.3955-3.117-3.117V3.1947C0,1.4732,1.3955.0777,3.117.0777h51.6556c1.7215,0,3.117,1.3955,3.117,3.117v6.4843c0,1.7215-1.3955,3.117-3.117,3.117h-15.935c-1.7215,0-3.117,1.3955-3.117,3.117v50.4916c0,1.7215-1.3955,3.117-3.117,3.117h-7.2481c-1.7215,0-3.117-1.3955-3.117-3.117Z" fill="#eaefd7" stroke-width="0"/><path id="A" d="M171.6239.1115h-9.4376c-1.3059,0-2.4734.8141-2.9248,2.0395l-23.3172,63.2928c-.7497,2.0349.7562,4.1945,2.9248,4.1945h7.2564c1.345,0,2.5384-.8628,2.9599-2.14l4.3553-13.1955c.4216-1.2773,1.6149-2.14,2.9599-2.14h20.7512c1.3278,0,2.5098.8411,2.9449,2.0956l4.6076,13.2844c.4351,1.2545,1.6171,2.0956,2.9449,2.0956h7.292c2.1686,0,3.6745-2.1596,2.9248-4.1945L174.5487,2.151c-.4514-1.2254-1.6189-2.0395-2.9248-2.0395ZM158.7983,37.5467l5.1899-15.0519c.9627-2.7919,4.9068-2.8044,5.887-.0186l5.2964,15.0519c.7134,2.0275-.7909,4.1516-2.9403,4.1516h-10.4863c-2.141,0-3.6446-2.1089-2.9467-4.133Z" fill="#eaefd7" stroke-width="0"/><rect id="I" x="206.8951" y=".1115" width="13.527" height="69.3763" rx="3.117" ry="3.117" fill="#eaefd7" stroke-width="0"/><path id="N" d="M235.0764,66.3709V3.2285c0-1.7215,1.3955-3.117,3.117-3.117h6.07c.9605,0,1.8673.4428,2.4579,1.2002l29.5612,37.9059c1.8239,2.3387,5.5749,1.049,5.5749-1.9168V3.2285c0-1.7215,1.3955-3.117,3.117-3.117h6.7294c1.7215,0,3.117,1.3955,3.117,3.117v63.2928c0,1.7215-1.3955,3.117-3.117,3.117h-6.0933c-.9472,0-1.8429-.4307-2.4344-1.1704l-29.3969-36.7646c-1.8403-2.3015-5.5514-1.0002-5.5514,1.9466v32.721c0,1.7215-1.3955,3.117-3.117,3.117h-6.9173c-1.7215,0-3.117-1.3955-3.117-3.117Z" fill="#eaefd7" stroke-width="0"/><path id="E" d="M467.5096.1115h-41.3075c-1.7215,0-3.117,1.3955-3.117,3.117v63.2928c0,1.7215,1.3955,3.117,3.117,3.117h42.4258c1.7215,0,3.117-1.3955,3.117-3.117v-5.9535c0-1.7215-1.3955-3.117-3.117-3.117h-28.8988c-1.7215,0-3.117-1.3955-3.117-3.117v-11.332c0-1.7215,1.3955-3.117,3.117-3.117h22.9962c1.7215,0,3.117-1.3955,3.117-3.117v-4.7043c0-1.7215-1.3955-3.117-3.117-3.117h-22.9976c-1.7215,0-3.117-1.3955-3.117-3.117v-10.8335c0-1.7215,1.3955-3.117,3.117-3.117h27.7978c1.725,0,3.1219-1.401,3.117-3.1259l-.0159-5.5336c-.0049-1.718-1.399-3.108-3.117-3.108Z" fill="#eaefd7" stroke-width="0"/><path id="X" d="M478.8788,4.9929l19.3251,28.1436c.7211,1.0501.7306,2.4333.0241,3.4932l-18.7724,28.1629c-1.3807,2.0714.1042,4.8458,2.5936,4.8458h7.2927c1.0442,0,2.019-.5229,2.5967-1.3928l12.9949-19.5701c1.2379-1.8643,3.9788-1.8554,5.2045.017l12.7897,19.5362c.5759.8797,1.5564,1.4097,2.6078,1.4097h7.0783c2.5064,0,3.9877-2.8081,2.5727-4.8768l-18.8608-27.5734c-.728-1.0643-.7255-2.4669.0062-3.5286l19.7545-28.6621c1.4252-2.0678-.0551-4.8858-2.5665-4.8858h-7.3047c-1.041,0-2.0133.5197-2.5916,1.3852l-13.5416,20.2653c-1.2342,1.847-3.9491,1.847-5.1833,0l-13.5416-20.2653c-.5784-.8655-1.5506-1.3852-2.5916-1.3852h-7.3172c-2.5089,0-3.9897,2.8131-2.5695,4.8814Z" fill="#eaefd7" stroke-width="0"/></svg>